<svg width="262" height="36" viewBox="0 0 262 36" fill="none" xmlns="http://www.w3.org/2000/svg">
<path d="M88.4405 29.1684H94.2193L88.5259 21.4028L93.2542 15.866L98.8086 28.9409L98.3531 30.1071C98.1254 30.714 97.8502 31.1786 97.5275 31.501C97.2049 31.8423 96.683 32.013 95.9619 32.013C95.7341 32.013 95.4779 31.9845 95.1933 31.9276C94.9276 31.8897 94.6809 31.8328 94.4531 31.757L93.9407 35.6824C94.2823 35.7773 94.6809 35.8531 95.1363 35.91C95.6108 35.9669 96.0662 35.9953 96.5027 35.9953C97.3947 35.9953 98.1633 35.891 98.8086 35.6824C99.4728 35.4738 100.042 35.1609 100.517 34.7437C101.01 34.3455 101.428 33.8525 101.769 33.2646C102.13 32.6957 102.452 32.0414 102.737 31.3018L109.085 15.0026H104.132L101.314 24.1051H101.228L98.0684 15.0026H93.9916L93.9916 15.0025H88.3267L83.8004 20.7485H83.715V7.66357H79.018V29.1684H83.715V22.3699H83.8004L88.4405 29.1684Z" fill="white"/>
<path d="M77.4961 22.0286C77.4961 23.0147 77.3443 23.9629 77.0406 24.8731C76.737 25.7834 76.291 26.5893 75.7027 27.291C75.1333 27.9737 74.4312 28.5236 73.5961 28.9408C72.7611 29.358 71.8122 29.5666 70.7494 29.5666C69.8005 29.5666 68.8991 29.377 68.0451 28.9977C67.21 28.5995 66.5648 28.04 66.1093 27.3194H66.0524V29.1684H61.7539V7.66357H66.4225V16.5101H66.4794C66.8779 16.036 67.4378 15.5999 68.1589 15.2016C68.8801 14.8034 69.7626 14.6043 70.8064 14.6043C71.8312 14.6043 72.7516 14.8034 73.5677 15.2016C74.4027 15.5999 75.1049 16.1403 75.6742 16.823C76.2625 17.5057 76.7085 18.3022 77.0122 19.2125C77.3348 20.1038 77.4961 21.0425 77.4961 22.0286ZM72.9983 22.0286C72.9983 21.5734 72.9224 21.1278 72.7706 20.6916C72.6377 20.2555 72.429 19.8762 72.1443 19.5538C71.8596 19.2125 71.5086 18.9375 71.091 18.7289C70.6735 18.5203 70.1896 18.416 69.6392 18.416C69.1078 18.416 68.6334 18.5203 68.2159 18.7289C67.7984 18.9375 67.4378 19.2125 67.1341 19.5538C66.8495 19.8951 66.6217 20.2839 66.4509 20.7201C66.2991 21.1562 66.2232 21.6019 66.2232 22.057C66.2232 22.5121 66.2991 22.9578 66.4509 23.3939C66.6217 23.8301 66.8495 24.2189 67.1341 24.5602C67.4378 24.9016 67.7984 25.1765 68.2159 25.3851C68.6334 25.5937 69.1078 25.698 69.6392 25.698C70.1896 25.698 70.6735 25.5937 71.091 25.3851C71.5086 25.1765 71.8596 24.9016 72.1443 24.5602C72.429 24.2189 72.6377 23.8301 72.7706 23.3939C72.9224 22.9388 72.9983 22.4837 72.9983 22.0286Z" fill="white"/>
<path d="M55.0202 29.1684V27.2057H54.9633C54.7925 27.5281 54.5648 27.8315 54.2801 28.116C54.0144 28.4004 53.6918 28.6469 53.3122 28.8555C52.9516 29.0641 52.5436 29.2348 52.0882 29.3676C51.6517 29.5003 51.1867 29.5667 50.6933 29.5667C49.7444 29.5667 48.9378 29.396 48.2736 29.0547C47.6283 28.7133 47.097 28.2771 46.6794 27.7462C46.2809 27.1962 45.9867 26.5799 45.797 25.8972C45.6262 25.1955 45.5408 24.4844 45.5408 23.7638V15.0026H50.2378V22.6829C50.2378 23.0811 50.2663 23.4604 50.3232 23.8207C50.3801 24.181 50.4845 24.5034 50.6363 24.7878C50.8071 25.0723 51.0254 25.2998 51.2911 25.4705C51.5568 25.6222 51.9079 25.6981 52.3444 25.6981C53.1604 25.6981 53.7772 25.3947 54.1947 24.7878C54.6312 24.181 54.8494 23.4698 54.8494 22.6544V15.0026H59.518V29.1684H55.0202Z" fill="white"/>
<path d="M44.8207 15.2301C44.8207 16.4058 44.6024 17.4014 44.1659 18.2169C43.7294 19.0133 43.1411 19.6581 42.401 20.1512C41.6608 20.6442 40.8068 21.0045 39.839 21.2321C38.8711 21.4597 37.8652 21.5734 36.8215 21.5734H34.4018V29.1684H29.5339V9.02896H36.9353C38.0361 9.02896 39.0609 9.14274 40.0098 9.37031C40.9776 9.57891 41.8127 9.92973 42.5148 10.4228C43.236 10.8969 43.7959 11.5322 44.1944 12.3286C44.6119 13.1062 44.8207 14.0733 44.8207 15.2301ZM39.9528 15.2585C39.9528 14.7844 39.8579 14.3957 39.6682 14.0923C39.4784 13.7888 39.2222 13.5518 38.8995 13.3811C38.5769 13.2105 38.2069 13.0967 37.7893 13.0398C37.3908 12.9829 36.9733 12.9544 36.5368 12.9544H34.4018V17.7048H36.4514C36.9069 17.7048 37.3434 17.6669 37.7609 17.5911C38.1784 17.5152 38.5485 17.3825 38.8711 17.1928C39.2127 17.0032 39.4784 16.7567 39.6682 16.4532C39.8579 16.1309 39.9528 15.7326 39.9528 15.2585Z" fill="white"/>
<path d="M253.594 18.8003C253.594 18.44 253.584 17.9755 253.565 17.4067C253.546 16.8378 253.518 16.3259 253.48 15.8708H255.33C255.368 16.2311 255.396 16.6293 255.415 17.0654C255.434 17.5015 255.444 17.8617 255.444 18.1461H255.501C255.88 17.3687 256.449 16.743 257.208 16.269C257.967 15.776 258.821 15.5295 259.77 15.5295C260.017 15.5295 260.235 15.539 260.425 15.558C260.633 15.5769 260.842 15.6149 261.051 15.6717L260.795 17.492C260.681 17.4541 260.491 17.4161 260.225 17.3782C259.96 17.3403 259.694 17.3213 259.428 17.3213C258.916 17.3213 258.423 17.4161 257.948 17.6058C257.474 17.7954 257.057 18.0987 256.696 18.5159C256.355 18.9141 256.07 19.4355 255.842 20.0802C255.634 20.7059 255.529 21.4643 255.529 22.3555V29.1814H253.594V18.8003Z" fill="white"/>
<path d="M248.605 21.5022C248.548 20.2508 248.14 19.2174 247.381 18.4021C246.641 17.5678 245.579 17.1507 244.194 17.1507C243.549 17.1507 242.951 17.2739 242.401 17.5204C241.85 17.748 241.367 18.0703 240.949 18.4874C240.532 18.8856 240.2 19.3502 239.953 19.8811C239.706 20.393 239.564 20.9334 239.526 21.5022H248.605ZM250.569 22.1279C250.569 22.2607 250.569 22.4029 250.569 22.5545C250.569 22.7062 250.56 22.8674 250.541 23.0381H239.498C239.517 23.7017 239.649 24.3274 239.896 24.9152C240.143 25.503 240.484 26.0149 240.921 26.451C241.357 26.8871 241.869 27.2379 242.458 27.5033C243.046 27.7498 243.681 27.8731 244.365 27.8731C245.37 27.8731 246.234 27.6455 246.955 27.1905C247.695 26.7165 248.254 26.1761 248.634 25.5693L250.085 26.707C249.288 27.7119 248.406 28.4324 247.438 28.8685C246.49 29.3046 245.465 29.5227 244.365 29.5227C243.378 29.5227 242.458 29.352 241.604 29.0107C240.769 28.6505 240.048 28.1575 239.441 27.5318C238.833 26.9061 238.35 26.1666 237.989 25.3134C237.648 24.4601 237.477 23.531 237.477 22.5261C237.477 21.5212 237.648 20.5921 237.989 19.7389C238.331 18.8856 238.805 18.1461 239.412 17.5204C240.019 16.8947 240.731 16.4112 241.547 16.0699C242.363 15.7097 243.245 15.5295 244.194 15.5295C245.237 15.5295 246.158 15.7097 246.955 16.0699C247.751 16.4112 248.416 16.8852 248.947 17.492C249.478 18.0798 249.877 18.7719 250.142 19.5682C250.427 20.3646 250.569 21.2178 250.569 22.1279Z" fill="white"/>
<path d="M231.15 29.1814H229.016L223.58 15.8708H225.743L230.069 27.1336H230.126L234.48 15.8708H236.558L231.15 29.1814Z" fill="white"/>
<path d="M216.568 18.8003C216.568 18.44 216.558 17.9755 216.539 17.4067C216.521 16.8378 216.492 16.3259 216.454 15.8708H218.304C218.342 16.2311 218.371 16.6293 218.39 17.0654C218.408 17.5015 218.418 17.8617 218.418 18.1461H218.475C218.854 17.3687 219.424 16.743 220.183 16.269C220.942 15.776 221.795 15.5295 222.744 15.5295C222.991 15.5295 223.209 15.539 223.399 15.558C223.607 15.5769 223.816 15.6149 224.025 15.6717L223.769 17.492C223.655 17.4541 223.465 17.4161 223.2 17.3782C222.934 17.3403 222.668 17.3213 222.403 17.3213C221.89 17.3213 221.397 17.4161 220.923 17.6058C220.448 17.7954 220.031 18.0987 219.67 18.5159C219.329 18.9141 219.044 19.4355 218.816 20.0802C218.608 20.7059 218.503 21.4643 218.503 22.3555V29.1814H216.568V18.8003Z" fill="white"/>
<path d="M211.58 21.5022C211.523 20.2508 211.115 19.2174 210.356 18.4021C209.616 17.5678 208.553 17.1507 207.168 17.1507C206.523 17.1507 205.925 17.2739 205.375 17.5204C204.825 17.748 204.341 18.0703 203.923 18.4874C203.506 18.8856 203.174 19.3502 202.927 19.8811C202.681 20.393 202.538 20.9334 202.5 21.5022H211.58ZM213.544 22.1279C213.544 22.2607 213.544 22.4029 213.544 22.5545C213.544 22.7062 213.534 22.8674 213.515 23.0381H202.472C202.491 23.7017 202.624 24.3274 202.87 24.9152C203.117 25.503 203.459 26.0149 203.895 26.451C204.331 26.8871 204.844 27.2379 205.432 27.5033C206.02 27.7498 206.656 27.8731 207.339 27.8731C208.345 27.8731 209.208 27.6455 209.929 27.1905C210.669 26.7165 211.229 26.1761 211.608 25.5693L213.06 26.707C212.263 27.7119 211.38 28.4324 210.413 28.8685C209.464 29.3046 208.439 29.5227 207.339 29.5227C206.352 29.5227 205.432 29.352 204.578 29.0107C203.743 28.6505 203.022 28.1575 202.415 27.5318C201.808 26.9061 201.324 26.1666 200.963 25.3134C200.622 24.4601 200.451 23.531 200.451 22.5261C200.451 21.5212 200.622 20.5921 200.963 19.7389C201.305 18.8856 201.779 18.1461 202.387 17.5204C202.994 16.8947 203.705 16.4112 204.521 16.0699C205.337 15.7097 206.219 15.5295 207.168 15.5295C208.212 15.5295 209.132 15.7097 209.929 16.0699C210.726 16.4112 211.39 16.8852 211.921 17.492C212.453 18.0798 212.851 18.7719 213.117 19.5682C213.401 20.3646 213.544 21.2178 213.544 22.1279Z" fill="white"/>
<path d="M196.998 19.0278C196.713 18.478 196.277 18.0324 195.688 17.6911C195.119 17.3308 194.465 17.1507 193.725 17.1507C193.383 17.1507 193.041 17.1886 192.7 17.2645C192.358 17.3403 192.055 17.4636 191.789 17.6342C191.524 17.8048 191.305 18.0229 191.135 18.2883C190.983 18.5538 190.907 18.8667 190.907 19.2269C190.907 19.8526 191.163 20.3361 191.675 20.6774C192.188 20.9998 192.994 21.2747 194.095 21.5022C195.669 21.8246 196.827 22.2986 197.567 22.9243C198.326 23.531 198.705 24.3558 198.705 25.3987C198.705 26.1571 198.554 26.8018 198.25 27.3327C197.965 27.8446 197.586 28.2713 197.111 28.6125C196.637 28.9349 196.096 29.1624 195.489 29.2951C194.901 29.4468 194.303 29.5227 193.696 29.5227C192.69 29.5227 191.713 29.3141 190.765 28.897C189.816 28.4798 189.038 27.8257 188.431 26.9345L189.968 25.7969C190.309 26.3846 190.812 26.8776 191.476 27.2758C192.14 27.674 192.871 27.8731 193.668 27.8731C194.085 27.8731 194.484 27.8352 194.863 27.7593C195.243 27.6835 195.575 27.5507 195.859 27.3611C196.144 27.1715 196.371 26.9345 196.542 26.6501C196.713 26.3467 196.798 25.977 196.798 25.5409C196.798 24.8393 196.457 24.3179 195.774 23.9766C195.11 23.6164 194.142 23.2845 192.871 22.9812C192.472 22.8864 192.045 22.7726 191.59 22.6399C191.154 22.4882 190.746 22.2796 190.366 22.0142C189.987 21.7297 189.673 21.379 189.427 20.9618C189.18 20.5447 189.057 20.0233 189.057 19.3976C189.057 18.715 189.19 18.1367 189.455 17.6626C189.721 17.1697 190.072 16.7715 190.508 16.4681C190.964 16.1458 191.476 15.9088 192.045 15.7571C192.615 15.6054 193.203 15.5295 193.81 15.5295C194.74 15.5295 195.641 15.7381 196.514 16.1552C197.387 16.5724 198.041 17.1602 198.478 17.9186L196.998 19.0278Z" fill="white"/>
<path d="M184.922 21.5022C184.866 20.2508 184.458 19.2174 183.699 18.4021C182.959 17.5678 181.896 17.1507 180.511 17.1507C179.866 17.1507 179.268 17.2739 178.718 17.5204C178.168 17.748 177.684 18.0703 177.266 18.4874C176.849 18.8856 176.517 19.3502 176.27 19.8811C176.023 20.393 175.881 20.9334 175.843 21.5022H184.922ZM186.886 22.1279C186.886 22.2607 186.886 22.4029 186.886 22.5545C186.886 22.7062 186.877 22.8674 186.858 23.0381H175.815C175.834 23.7017 175.967 24.3274 176.213 24.9152C176.46 25.503 176.801 26.0149 177.238 26.451C177.674 26.8871 178.187 27.2379 178.775 27.5033C179.363 27.7498 179.999 27.8731 180.682 27.8731C181.687 27.8731 182.551 27.6455 183.272 27.1905C184.012 26.7165 184.571 26.1761 184.951 25.5693L186.402 26.707C185.606 27.7119 184.723 28.4324 183.756 28.8685C182.807 29.3046 181.782 29.5227 180.682 29.5227C179.695 29.5227 178.775 29.352 177.921 29.0107C177.086 28.6505 176.365 28.1575 175.758 27.5318C175.151 26.9061 174.667 26.1666 174.306 25.3134C173.965 24.4601 173.794 23.531 173.794 22.5261C173.794 21.5212 173.965 20.5921 174.306 19.7389C174.648 18.8856 175.122 18.1461 175.729 17.5204C176.337 16.8947 177.048 16.4112 177.864 16.0699C178.68 15.7097 179.562 15.5295 180.511 15.5295C181.555 15.5295 182.475 15.7097 183.272 16.0699C184.069 16.4112 184.733 16.8852 185.264 17.492C185.795 18.0798 186.194 18.7719 186.459 19.5682C186.744 20.3646 186.886 21.2178 186.886 22.1279Z" fill="white"/>
<path d="M152.68 18.1461C153.06 17.3687 153.639 16.743 154.417 16.269C155.214 15.776 156.096 15.5295 157.064 15.5295C157.424 15.5295 157.794 15.5675 158.174 15.6433C158.572 15.7191 158.952 15.8708 159.312 16.0984C159.692 16.3069 160.033 16.5914 160.337 16.9516C160.659 17.3119 160.934 17.7764 161.162 18.3452C161.617 17.4351 162.234 16.743 163.012 16.269C163.809 15.776 164.748 15.5295 165.83 15.5295C167.518 15.5295 168.78 16.032 169.615 17.0369C170.469 18.0419 170.896 19.3691 170.896 21.0187V29.1814H168.961V21.8151C168.961 20.412 168.695 19.2838 168.164 18.4306C167.651 17.5773 166.769 17.1507 165.517 17.1507C164.815 17.1507 164.217 17.2929 163.724 17.5773C163.249 17.8617 162.86 18.2409 162.557 18.715C162.272 19.17 162.063 19.6915 161.931 20.2792C161.798 20.867 161.731 21.4738 161.731 22.0995V29.1814H159.796V21.4169C159.796 20.7722 159.748 20.1844 159.654 19.6535C159.559 19.1226 159.388 18.677 159.141 18.3168C158.914 17.9376 158.591 17.6532 158.174 17.4636C157.756 17.255 157.225 17.1507 156.58 17.1507C156.124 17.1507 155.659 17.255 155.185 17.4636C154.73 17.6721 154.312 17.9945 153.933 18.4306C153.572 18.8477 153.278 19.3881 153.05 20.0517C152.823 20.6964 152.709 21.4643 152.709 22.3555V29.1814H150.774V18.8003C150.774 18.44 150.764 17.9755 150.745 17.4067C150.726 16.8378 150.698 16.3259 150.66 15.8708H152.51C152.548 16.2311 152.576 16.6293 152.595 17.0654C152.614 17.5015 152.624 17.8617 152.624 18.1461H152.68Z" fill="white"/>
<path d="M147.747 22.5261C147.747 23.531 147.567 24.4601 147.207 25.3134C146.865 26.1666 146.381 26.9061 145.755 27.5318C145.129 28.1575 144.379 28.6505 143.507 29.0107C142.634 29.352 141.675 29.5227 140.632 29.5227C139.607 29.5227 138.659 29.352 137.786 29.0107C136.913 28.6505 136.163 28.1575 135.537 27.5318C134.911 26.9061 134.418 26.1666 134.057 25.3134C133.716 24.4601 133.545 23.531 133.545 22.5261C133.545 21.5212 133.716 20.5921 134.057 19.7389C134.418 18.8856 134.911 18.1461 135.537 17.5204C136.163 16.8947 136.913 16.4112 137.786 16.0699C138.659 15.7097 139.607 15.5295 140.632 15.5295C141.675 15.5295 142.634 15.7097 143.507 16.0699C144.379 16.4112 145.129 16.8947 145.755 17.5204C146.381 18.1461 146.865 18.8856 147.207 19.7389C147.567 20.5921 147.747 21.5212 147.747 22.5261ZM145.698 22.5261C145.698 21.7866 145.575 21.0946 145.328 20.4499C145.1 19.7863 144.768 19.2174 144.332 18.7434C143.895 18.2504 143.364 17.8617 142.738 17.5773C142.112 17.2929 141.41 17.1507 140.632 17.1507C139.854 17.1507 139.152 17.2929 138.526 17.5773C137.919 17.8617 137.397 18.2504 136.96 18.7434C136.524 19.2174 136.182 19.7863 135.936 20.4499C135.708 21.0946 135.594 21.7866 135.594 22.5261C135.594 23.2656 135.708 23.9671 135.936 24.6308C136.182 25.2754 136.524 25.8443 136.96 26.3372C137.397 26.8113 137.919 27.1905 138.526 27.4749C139.152 27.7403 139.854 27.8731 140.632 27.8731C141.41 27.8731 142.112 27.7403 142.738 27.4749C143.364 27.1905 143.895 26.8113 144.332 26.3372C144.768 25.8443 145.1 25.2754 145.328 24.6308C145.575 23.9671 145.698 23.2656 145.698 22.5261Z" fill="white"/>
<path d="M115.336 9.04492H117.385V17.7764H128.371V9.04492H130.421V29.1814H128.371V19.6535H117.385V29.1814H115.336V9.04492Z" fill="white"/>
<path d="M9.54883 8.69922C13.5883 8.69922 16.8633 11.9726 16.8633 16.0107C16.8633 17.7581 16.2494 19.3606 15.2295 20.6162L18.0273 29.1709H1.07031L3.86816 20.6162C2.84826 19.3606 2.23438 17.7581 2.23438 16.0107C2.23441 11.9726 5.50939 8.69922 9.54883 8.69922ZM9.34961 12.1484C7.3051 12.2521 5.67976 13.9416 5.67969 16.0107C5.67969 17.4911 6.51144 18.7775 7.73438 19.4277L7.85938 19.4951L5.82129 25.7266H13.2764L11.2383 19.4951L11.3633 19.4277C12.5862 18.7775 13.418 17.4911 13.418 16.0107C13.4179 13.8748 11.6859 12.1426 9.54883 12.1426L9.34961 12.1484ZM9.55078 0.00292969L9.55176 0.00390625L11.8574 3.02539L14.8291 1.1543L15.6475 4.30566L19.0977 3.58105L15.96 8.70508C14.2492 7.20337 12.0063 6.29274 9.55176 6.29199H9.5459C7.09138 6.29273 4.84844 7.20336 3.1377 8.70508L0 3.58105L3.4502 4.30566L4.26855 1.1543L7.24023 3.02539L9.54883 0L9.55078 0.00292969Z" fill="white"/>
</svg>
